<svg id="Layer_1" data-name="Layer 1" xmlns="http://www.w3.org/2000/svg" viewBox="0 0 128 32"><defs><style>.cls-1{fill:#999;}</style></defs><path class="cls-1" d="M16,29.5a13.5,13.5,0,0,1,0-27h96a13.5,13.5,0,0,1,0,27Z"/><path d="M112,5a11,11,0,0,1,0,22H16A11,11,0,0,1,16,5h96m0-5H16A16,16,0,0,0,0,16H0A16,16,0,0,0,16,32h96a16,16,0,0,0,16-16h0A16,16,0,0,0,112,0Z"/><rect class="cls-1" x="114" y="15" width="4" height="2"/><polygon points="118 15 114 15 114 17 118 17 118 15 118 15"/><rect class="cls-1" x="7" y="13" width="7" height="2"/><polygon points="14 13 7 13 7 15 14 15 14 13 14 13"/><rect class="cls-1" x="7" y="17" width="7" height="2"/><polygon points="14 17 7 17 7 19 14 19 14 17 14 17"/></svg>