<svg xmlns="http://www.w3.org/2000/svg" viewBox="0 0 512 64"><defs><style>.cls-1{opacity:0.75;font-size:20px;font-family:TrebuchetMS, Trebuchet MS;}</style></defs><g id="Layer_5" data-name="Layer 5"><text class="cls-1" transform="translate(10.23 24.33)">1</text><text class="cls-1" transform="translate(137.52 23.81)">2</text><text class="cls-1" transform="translate(266.21 24.2)">3</text><text class="cls-1" transform="translate(330.13 24.05)">4</text><text class="cls-1" transform="translate(394.13 24.05)">5</text><text class="cls-1" transform="translate(458.5 23.72)">6</text></g><g id="Layer_1" data-name="Layer 1"><path d="M495.41,5A11.6,11.6,0,0,1,507,16.59V47.41A11.6,11.6,0,0,1,495.41,59H16.59A11.6,11.6,0,0,1,5,47.41V16.59A11.6,11.6,0,0,1,16.59,5H495.41m0-5H16.59A16.59,16.59,0,0,0,0,16.59V47.41A16.59,16.59,0,0,0,16.59,64H495.41A16.59,16.59,0,0,0,512,47.41V16.59A16.59,16.59,0,0,0,495.41,0Z"/></g><g id="Layer_2" data-name="Layer 2"><path d="M111.07,5A11.94,11.94,0,0,1,123,16.93V47.07A11.94,11.94,0,0,1,111.07,59H16.93A11.94,11.94,0,0,1,5,47.07V16.93A11.94,11.94,0,0,1,16.93,5h94.14m0-5H16.93A16.93,16.93,0,0,0,0,16.93V47.07A16.93,16.93,0,0,0,16.93,64h94.14A16.93,16.93,0,0,0,128,47.07V16.93A16.93,16.93,0,0,0,111.07,0Z"/><path d="M239.07,5A11.94,11.94,0,0,1,251,16.93V47.07A11.94,11.94,0,0,1,239.07,59H144.93A11.94,11.94,0,0,1,133,47.07V16.93A11.94,11.94,0,0,1,144.93,5h94.14m0-5H144.93A16.93,16.93,0,0,0,128,16.93V47.07A16.93,16.93,0,0,0,144.93,64h94.14A16.93,16.93,0,0,0,256,47.07V16.93A16.93,16.93,0,0,0,239.07,0Z"/></g><g id="Layer_3" data-name="Layer 3"><path d="M303,5a12,12,0,0,1,12,12V47a12,12,0,0,1-12,12H273a12,12,0,0,1-12-12V17A12,12,0,0,1,273,5h30m0-5H273a17,17,0,0,0-17,17V47a17,17,0,0,0,17,17h30a17,17,0,0,0,17-17V17A17,17,0,0,0,303,0Z"/><path d="M367,5a12,12,0,0,1,12,12V47a12,12,0,0,1-12,12H337a12,12,0,0,1-12-12V17A12,12,0,0,1,337,5h30m0-5H337a17,17,0,0,0-17,17V47a17,17,0,0,0,17,17h30a17,17,0,0,0,17-17V17A17,17,0,0,0,367,0Z"/><path d="M431,5a12,12,0,0,1,12,12V47a12,12,0,0,1-12,12H401a12,12,0,0,1-12-12V17A12,12,0,0,1,401,5h30m0-5H401a17,17,0,0,0-17,17V47a17,17,0,0,0,17,17h30a17,17,0,0,0,17-17V17A17,17,0,0,0,431,0Z"/><path d="M495,5a12,12,0,0,1,12,12V47a12,12,0,0,1-12,12H465a12,12,0,0,1-12-12V17A12,12,0,0,1,465,5h30m0-5H465a17,17,0,0,0-17,17V47a17,17,0,0,0,17,17h30a17,17,0,0,0,17-17V17A17,17,0,0,0,495,0Z"/></g><g id="Layer_7" data-name="Layer 7"><rect x="123" width="10" height="64"/><rect x="251" width="10" height="64"/><rect x="315" width="10" height="64"/><rect x="379" width="10" height="64"/><rect x="443" width="10" height="64"/></g></svg>